<svg width="16" height="16" viewBox="0 0 16 16" fill="none" xmlns="http://www.w3.org/2000/svg">
<g clip-path="url(#clip0_71_1046)">
<path d="M11.3334 0.000221252C11.4211 -0.000286102 11.5081 0.016531 11.5893 0.0497074C11.6705 0.0828838 11.7444 0.131768 11.8067 0.193556C11.8692 0.25553 11.9188 0.329264 11.9526 0.410503C11.9865 0.491743 12.0039 0.578879 12.0039 0.666887C12.0039 0.754895 11.9865 0.842032 11.9526 0.923272C11.9188 1.00451 11.8692 1.07824 11.8067 1.14022L6.36004 6.58688C5.98551 6.96188 5.77513 7.47021 5.77513 8.00021C5.77513 8.53021 5.98551 9.03854 6.36004 9.41354L11.8067 14.8602C11.9322 14.9857 12.0028 15.156 12.0028 15.3335C12.0028 15.5111 11.9322 15.6813 11.8067 15.8069C11.6812 15.9324 11.5109 16.0029 11.3334 16.0029C11.1558 16.0029 10.9856 15.9324 10.86 15.8069L5.41337 10.3602C5.10295 10.0506 4.85667 9.68273 4.68862 9.27777C4.52058 8.8728 4.43408 8.43866 4.43408 8.00021C4.43408 7.56176 4.52058 7.12762 4.68862 6.72266C4.85667 6.31769 5.10295 5.94985 5.41337 5.64021L10.86 0.193556C10.9223 0.131768 10.9962 0.0828838 11.0774 0.0497074C11.1587 0.016531 11.2456 -0.000286102 11.3334 0.000221252Z" fill="#374957"/>
</g>
<defs>
<clipPath id="clip0_71_1046">
<rect width="16" height="16" fill="white" transform="matrix(-1 0 0 -1 16 16)"/>
</clipPath>
</defs>
</svg>
