<svg width="95" height="95" viewBox="0 0 95 95" fill="none" xmlns="http://www.w3.org/2000/svg">
<g clip-path="url(#clip0_1411_1720)">
<path d="M47.5 93.5C72.9051 93.5 93.5 72.9051 93.5 47.5C93.5 22.0949 72.9051 1.5 47.5 1.5C22.0949 1.5 1.5 22.0949 1.5 47.5C1.5 72.9051 22.0949 93.5 47.5 93.5Z" stroke="#776CF5" stroke-width="3"/>
<path d="M47.5 88.501C70.1437 88.501 88.5 70.1447 88.5 47.501C88.5 24.8573 70.1437 6.50098 47.5 6.50098C24.8563 6.50098 6.5 24.8573 6.5 47.501C6.5 70.1447 24.8563 88.501 47.5 88.501Z" stroke="#776CF5" stroke-width="3"/>
<path d="M14.1444 71.3467L88.3797 44.3271" stroke="#776CF5" stroke-width="3"/>
<path d="M34.4824 86.2917L82.4067 68.8486" stroke="#776CF5" stroke-width="3"/>
<path d="M75.7939 28.8504C75.0121 28.4161 74.1461 28.1549 73.2545 28.0844C72.3629 28.0139 71.4666 28.1358 70.6263 28.4419L65.9407 30.1473L65.4628 27.6063C65.2952 26.7112 64.8114 25.9062 64.0997 25.3381C63.388 24.77 62.4958 24.4767 61.5859 24.5116C60.6759 24.5466 59.8088 24.9074 59.1427 25.5284C58.4767 26.1494 58.056 26.9891 57.9575 27.8944L57.3672 33.2678L54.1817 34.4272C52.6253 34.9958 51.358 36.1585 50.6577 37.6603C49.9574 39.162 49.8814 40.8802 50.4462 42.438L52.5838 48.311C53.1524 49.8674 54.3151 51.1347 55.8169 51.835C57.3186 52.5353 59.0368 52.6113 60.5945 52.0465L76.2169 46.3604C77.6284 45.8401 78.8063 44.8304 79.5362 43.515C80.2661 42.1996 80.4995 40.6659 80.1941 39.1929L78.8846 33.0184C78.698 32.1428 78.3254 31.3176 77.7922 30.5985C77.259 29.8794 76.5775 29.2832 75.7939 28.8504ZM54.9331 47.456L52.7954 41.5829C52.4553 40.6483 52.5003 39.6169 52.9206 38.7155C53.341 37.8141 54.1021 37.1166 55.0367 36.7765L57.386 35.9214L62.0887 48.8422L59.7395 49.6973C58.8049 50.0374 57.7735 49.9924 56.8721 49.5721C55.9707 49.1517 55.2732 48.3906 54.9331 47.456ZM76.4328 33.537L77.7412 39.7119C77.9252 40.5947 77.7862 41.5142 77.3496 42.3032C76.9129 43.0922 76.2076 43.6983 75.3619 44.0112L64.438 47.9872L59.6215 34.7539C59.6971 34.6172 59.7464 34.4675 59.7668 34.3126L60.4419 28.1673C60.4751 27.9583 60.5573 27.7601 60.6819 27.5891C60.8065 27.418 60.97 27.279 61.1588 27.1834C61.3476 27.0878 61.5564 27.0384 61.768 27.0392C61.9796 27.04 62.1881 27.091 62.3761 27.188C62.5404 27.2802 62.6823 27.4075 62.7916 27.5608C62.901 27.7142 62.9752 27.8898 63.0089 28.0751L63.7568 32.0596C63.7907 32.2374 63.8629 32.4058 63.9683 32.553C64.0736 32.7002 64.2097 32.8228 64.3672 32.9123C64.5246 33.0017 64.6995 33.0559 64.88 33.0711C65.0604 33.0863 65.242 33.0621 65.4121 33.0002L71.4813 30.7911C71.9857 30.6075 72.5236 30.5342 73.0587 30.5764C73.5938 30.6185 74.1136 30.775 74.583 31.0353C75.0524 31.2956 75.4605 31.6537 75.7796 32.0852C76.0987 32.5168 76.3215 33.0119 76.4328 33.537Z" fill="#776CF5"/>
<path d="M38.804 41.2498C38.0221 40.8155 37.1561 40.5542 36.2646 40.4838C35.373 40.4133 34.4767 40.5352 33.6364 40.8413L28.9508 42.5467L28.4729 40.0056C28.3053 39.1106 27.8215 38.3056 27.1098 37.7375C26.3981 37.1694 25.5059 36.8761 24.5959 36.911C23.686 36.946 22.8189 37.3068 22.1528 37.9278C21.4867 38.5488 21.0661 39.3885 20.9676 40.2938L20.3773 45.6672L17.1917 46.8266C15.6354 47.3952 14.368 48.5579 13.6677 50.0597C12.9675 51.5614 12.8914 53.2796 13.4563 54.8374L15.5939 60.7104C16.1625 62.2668 17.3252 63.5341 18.8269 64.2344C20.3287 64.9347 22.0469 65.0107 23.6046 64.4459L39.227 58.7598C40.6385 58.2395 41.8163 57.2298 42.5462 55.9144C43.2761 54.599 43.5096 53.0653 43.2042 51.5923L41.8946 45.4178C41.708 44.5422 41.3355 43.717 40.8023 42.9979C40.2691 42.2788 39.5876 41.6826 38.804 41.2498ZM17.9431 59.8554L15.8055 53.9823C15.4654 53.0477 15.5104 52.0163 15.9307 51.1149C16.351 50.2135 17.1122 49.516 18.0468 49.1759L20.396 48.3208L25.0988 61.2416L22.7496 62.0967C21.815 62.4368 20.7836 62.3918 19.8822 61.9715C18.9808 61.5511 18.2833 60.79 17.9431 59.8554ZM39.4429 45.9364L40.7512 52.1113C40.9353 52.9941 40.7963 53.9136 40.3597 54.7026C39.923 55.4916 39.2177 56.0976 38.372 56.4106L27.448 60.3865L22.6315 47.1533C22.7071 47.0166 22.7564 46.8669 22.7769 46.712L23.452 40.5667C23.4851 40.3577 23.5674 40.1595 23.692 39.9885C23.8166 39.8174 23.98 39.6784 24.1688 39.5828C24.3577 39.4872 24.5664 39.4378 24.7781 39.4386C24.9897 39.4394 25.1981 39.4904 25.3862 39.5874C25.5505 39.6796 25.6923 39.8069 25.8017 39.9602C25.9111 40.1136 25.9853 40.2891 26.019 40.4745L26.7669 44.459C26.8008 44.6368 26.8729 44.8052 26.9783 44.9524C27.0837 45.0996 27.2198 45.2222 27.3772 45.3117C27.5346 45.4011 27.7096 45.4553 27.89 45.4705C28.0705 45.4857 28.252 45.4615 28.4222 45.3995L34.4914 43.1905C34.9958 43.0069 35.5337 42.9336 36.0688 42.9758C36.6039 43.0179 37.1237 43.1744 37.5931 43.4347C38.0625 43.695 38.4706 44.0531 38.7897 44.4846C39.1088 44.9162 39.3316 45.4113 39.4429 45.9364Z" fill="#776CF5"/>
<path d="M52.039 16.2127C51.2572 15.7784 50.3912 15.5172 49.4996 15.4467C48.6081 15.3762 47.7118 15.4981 46.8714 15.8042L42.1859 17.5096L41.708 14.9686C41.5403 14.0735 41.0565 13.2685 40.3448 12.7004C39.6331 12.1323 38.7409 11.839 37.831 11.8739C36.921 11.9089 36.0539 12.2697 35.3879 12.8907C34.7218 13.5117 34.3012 14.3514 34.2026 15.2567L33.6124 20.6301L30.4268 21.7896C28.8704 22.3582 27.6031 23.5208 26.9028 25.0226C26.2025 26.5243 26.1265 28.2425 26.6913 29.8003L28.829 35.6733C29.3976 37.2297 30.5603 38.4971 32.062 39.1973C33.5637 39.8976 35.2819 39.9737 36.8397 39.4088L52.4621 33.7227C53.8736 33.2024 55.0514 32.1927 55.7813 30.8773C56.5112 29.5619 56.7447 28.0282 56.4392 26.5552L55.1297 20.3807C54.9431 19.5051 54.5706 18.6799 54.0374 17.9608C53.5041 17.2417 52.8226 16.6455 52.039 16.2127ZM31.1782 34.8183L29.0406 28.9452C28.7004 28.0106 28.7455 26.9792 29.1658 26.0778C29.5861 25.1764 30.3473 24.479 31.2818 24.1388L33.6311 23.2837L38.3339 36.2045L35.9846 37.0596C35.05 37.3997 34.0186 37.3547 33.1172 36.9344C32.2159 36.5141 31.5184 35.7529 31.1782 34.8183ZM52.678 20.8993L53.9863 27.0742C54.1703 27.957 54.0314 28.8765 53.5947 29.6655C53.1581 30.4545 52.4527 31.0606 51.607 31.3735L40.6831 35.3495L35.8666 22.1162C35.9422 21.9795 35.9915 21.8298 36.0119 21.6749L36.6871 15.5297C36.7202 15.3206 36.8024 15.1225 36.9271 14.9514C37.0517 14.7804 37.2151 14.6413 37.4039 14.5457C37.5927 14.4501 37.8015 14.4007 38.0131 14.4015C38.2248 14.4023 38.4332 14.4533 38.6213 14.5503C38.7855 14.6425 38.9274 14.7698 39.0368 14.9231C39.1462 15.0765 39.2204 15.2521 39.2541 15.4374L40.002 19.4219C40.0359 19.5997 40.108 19.7681 40.2134 19.9153C40.3188 20.0626 40.4549 20.1851 40.6123 20.2746C40.7697 20.364 40.9447 20.4182 41.1251 20.4334C41.3055 20.4486 41.4871 20.4244 41.6572 20.3625L47.7265 18.1534C48.2308 17.9698 48.7687 17.8966 49.3038 17.9387C49.8389 17.9808 50.3587 18.1373 50.8282 18.3976C51.2976 18.6579 51.7056 19.016 52.0247 19.4476C52.3439 19.8791 52.5666 20.3742 52.678 20.8993Z" fill="#776CF5"/>
<path d="M37.3042 74.1039L37.452 74.5099L39.6231 73.6686C39.796 73.6056 39.9235 73.5934 40.0055 73.6316C40.0923 73.6596 40.1597 73.7628 40.2076 73.9412L40.7874 75.8499C40.8326 76.0208 40.8384 76.1421 40.805 76.2139C40.779 76.2829 40.6809 76.3526 40.5108 76.4231L36.1418 78.2431L36.3018 78.6829L40.6135 76.986C40.746 76.9292 40.8445 76.919 40.9087 76.9552C40.9805 76.9886 41.0396 77.0692 41.0862 77.197L41.3078 77.806C41.3543 77.9338 41.3595 78.0297 41.3232 78.094C41.2946 78.1555 41.2126 78.2109 41.0772 78.2601L35.3223 80.4825C35.1521 80.5529 35.0298 80.5677 34.9552 80.5267C34.8807 80.4857 34.8082 80.3801 34.7378 80.2099L33.9847 78.3514C33.9143 78.1812 33.8996 78.0589 33.9405 77.9844C33.9788 77.9024 34.083 77.8261 34.2532 77.7557L38.697 75.8956L38.5492 75.4898L33.7076 77.3797C33.5949 77.4207 33.5118 77.4381 33.4585 77.4319C33.4127 77.4231 33.3761 77.3811 33.3488 77.306L33.0287 76.4263C32.9986 76.3436 32.9982 76.2842 33.0276 76.2479C33.0617 76.2014 33.1352 76.1577 33.248 76.1166L35.5473 75.2414L35.3995 74.8355L32.9198 75.7764C32.7845 75.8256 32.6785 75.8386 32.602 75.8154C32.5329 75.7895 32.4752 75.7127 32.4286 75.5849L32.1496 74.8181C32.103 74.6903 32.0979 74.5942 32.1341 74.5299C32.1778 74.4629 32.2673 74.4048 32.4027 74.3555L39.2627 71.731C39.398 71.6817 39.5002 71.6701 39.5692 71.696C39.6458 71.7192 39.7073 71.7948 39.7539 71.9226L40.0329 72.6894C40.0795 72.8172 40.0809 72.9145 40.0371 72.9815C40.0009 73.0458 39.9152 73.1025 39.7798 73.1518L37.3042 74.1039ZM35.5084 72.1524L32.4979 73.9506C32.3933 74.0142 32.3058 74.0545 32.2355 74.0716C32.1698 74.0785 32.0977 74.0323 32.0191 73.9333L31.4396 73.1481C31.361 73.049 31.3117 72.9605 31.2919 72.8826C31.272 72.8047 31.312 72.7391 31.4118 72.6857L33.8073 71.303C33.9071 71.2497 33.9662 71.1899 33.9847 71.1235C34.0004 71.0497 33.989 70.9602 33.9507 70.8549L33.9384 70.8211L31.5038 71.7456C31.3685 71.7948 31.2625 71.8078 31.186 71.7846C31.1169 71.7587 31.0592 71.6819 31.0126 71.5541L30.7294 70.7759C30.6829 70.6481 30.6778 70.5522 30.714 70.4879C30.7577 70.421 30.8472 70.3627 30.9825 70.3135L33.4172 69.389L33.2694 68.9832C33.2092 68.8178 33.1972 68.7029 33.2335 68.6386C33.2669 68.5668 33.3626 68.5022 33.5205 68.4448L34.6481 68.0343C34.8135 67.9741 34.9269 67.9584 34.9885 67.9871C35.0575 68.013 35.1235 68.1126 35.1864 68.2855L35.3218 68.6575L37.7298 67.73C37.8652 67.6807 37.9673 67.6691 38.0364 67.695C38.1129 67.7182 38.1745 67.7937 38.221 67.9215L38.5042 68.6997C38.5507 68.8275 38.5521 68.9248 38.5084 68.9918C38.4722 69.056 38.3864 69.1128 38.2511 69.1621L35.8431 70.0896L35.8677 70.1572C35.906 70.2625 35.9549 70.3383 36.0144 70.3848C36.0711 70.4237 36.1549 70.4316 36.2656 70.4083L38.9484 69.8149C39.0591 69.7916 39.1319 69.8162 39.1668 69.8887C39.2017 69.9611 39.2209 70.0606 39.2243 70.187L39.2851 71.1609C39.2886 71.2874 39.2616 71.3653 39.2042 71.3947C39.1468 71.4241 39.0552 71.4532 38.9294 71.4819L35.5084 72.1524Z" fill="#776CF5"/>
<path d="M41.0783 72.1306C40.891 72.037 40.8578 71.8873 40.9787 71.6815L42.357 69.4687C42.4246 69.3504 42.4403 69.2298 42.404 69.1068C42.3725 68.9735 42.3322 68.8392 42.2829 68.7039L41.6221 66.8884C41.551 66.6929 41.5332 66.5504 41.5687 66.4609C41.609 66.3611 41.7081 66.2825 41.8659 66.225L42.9259 65.8392C43.0838 65.7817 43.2065 65.7797 43.294 65.8329C43.3863 65.876 43.468 65.9952 43.5391 66.1907L44.1999 68.0062C44.2491 68.1415 44.3008 68.2717 44.3548 68.3967C44.4088 68.5218 44.5022 68.6028 44.6348 68.6396L47.0432 69.2571C47.1656 69.2892 47.2391 69.3391 47.2637 69.4068C47.2883 69.4744 47.2856 69.5605 47.2556 69.6651L46.8633 70.8678C46.8284 70.9827 46.7707 71.0462 46.69 71.0586C46.6067 71.0634 46.5089 71.0521 46.3968 71.0248L43.9925 70.4186L42.649 72.5166C42.5834 72.6171 42.5196 72.6872 42.4574 72.7268C42.3924 72.759 42.3036 72.7488 42.1908 72.6962L41.0783 72.1306ZM48.7308 72.806L44.4643 74.4866C44.3317 74.5433 44.2271 74.5601 44.1506 74.5369C44.0788 74.5034 44.0196 74.4228 43.9731 74.295L43.5873 73.235C43.5408 73.1072 43.5357 73.0112 43.5719 72.9469C43.6156 72.8799 43.7051 72.8218 43.8404 72.7726L49.6518 70.5297C49.8219 70.4593 49.9508 70.4507 50.0383 70.504C50.1258 70.5572 50.2013 70.683 50.265 70.8812L51.3168 74.0868C51.3804 74.2849 51.3945 74.4288 51.3589 74.5184C51.3337 74.6127 51.2384 74.69 51.073 74.7501L50.013 75.1359C49.8551 75.1934 49.7287 75.1969 49.6337 75.1463C49.5414 75.1033 49.4634 74.9827 49.3998 74.7845L48.7308 72.806ZM47.4786 67.9621L46.3253 68.4074C46.1927 68.4642 46.0882 68.481 46.0116 68.4578C45.9398 68.4243 45.8807 68.3437 45.8342 68.2159L45.4484 67.1559C45.4019 67.0281 45.3981 66.9358 45.437 66.8791C45.4807 66.8121 45.5689 66.7502 45.7015 66.6934L46.8547 66.2481L46.4894 65.2445C46.4183 65.0491 46.4005 64.9066 46.436 64.817C46.4763 64.7172 46.5754 64.6386 46.7332 64.5812L47.7932 64.1954C47.9586 64.1352 48.085 64.1317 48.1726 64.185C48.2573 64.2308 48.3353 64.3514 48.4064 64.5468L50.0727 69.125C50.1439 69.3205 50.1631 69.4667 50.1303 69.5638C50.0948 69.6533 49.9943 69.7282 49.8289 69.7884L48.769 70.1742C48.6111 70.2317 48.486 70.2389 48.3937 70.1958C48.3062 70.1426 48.2269 70.0182 48.1558 69.8227L47.4786 67.9621Z" fill="#776CF5"/>
<path d="M56.257 66.7078L56.0641 66.1778C55.3807 66.2648 54.7908 66.1646 54.2945 65.8769C53.7955 65.5818 53.4351 65.1298 53.2135 64.5209C53.0767 64.145 53.0212 63.7821 53.0471 63.4321C53.0702 63.0747 53.1662 62.7418 53.3349 62.4335C53.5111 62.1224 53.7592 61.8449 54.079 61.6008C54.396 61.3492 54.7801 61.1413 55.2311 60.9771C55.6822 60.8129 56.11 60.7253 56.5147 60.7143C56.9165 60.6957 57.2812 60.7503 57.6086 60.878C57.9436 61.003 58.2348 61.1949 58.4823 61.4539C58.7271 61.7054 58.9178 62.019 59.0546 62.3949C59.2763 63.0038 59.2894 63.5779 59.0941 64.1173C58.9063 64.6539 58.5353 65.1081 57.9811 65.4801L58.1576 65.965L59.7691 65.3402C59.9044 65.2909 60.0066 65.2793 60.0756 65.3052C60.1522 65.3284 60.2137 65.4039 60.2602 65.5317L60.646 66.5917C60.6925 66.7195 60.6939 66.8169 60.6502 66.8839C60.614 66.9482 60.5282 67.0049 60.3929 67.0542L55.3145 69.0303C55.1792 69.0795 55.0733 69.0925 54.9967 69.0693C54.9277 69.0434 54.8699 68.9665 54.8234 68.8387L54.4376 67.7787C54.3911 67.6509 54.3859 67.5549 54.4221 67.4906C54.4658 67.4236 54.5554 67.3655 54.6907 67.3163L56.257 66.7078ZM59.1208 60.6469C59.0496 60.4514 59.0318 60.3089 59.0673 60.2194C59.1076 60.1196 59.2067 60.0409 59.3646 59.9835L60.4246 59.5977C60.5899 59.5375 60.7164 59.534 60.8039 59.5873C60.8887 59.6331 60.9666 59.7537 61.0377 59.9491L61.8175 62.0916L62.5649 61.7941C62.6974 61.7373 62.7996 61.7257 62.8714 61.7592C62.9479 61.7824 63.0095 61.8579 63.056 61.9857L63.4418 63.0456C63.4883 63.1734 63.4897 63.2708 63.446 63.3378C63.407 63.3946 63.3213 63.4513 63.1887 63.5081L62.4414 63.8056L63.1966 65.8805C63.2677 66.0759 63.2869 66.2222 63.2541 66.3193C63.2186 66.4088 63.1182 66.4837 62.9528 66.5439L61.8928 66.9297C61.7349 66.9871 61.6098 66.9943 61.5176 66.9513C61.4301 66.898 61.3507 66.7737 61.2796 66.5782L59.1208 60.6469ZM58.1 72.1923C57.9373 72.26 57.8122 72.2672 57.7247 72.2139C57.6372 72.1606 57.5579 72.0362 57.4868 71.8408L56.707 69.6983C56.6358 69.5028 56.618 69.3603 56.6535 69.2708C56.6938 69.171 56.7929 69.0924 56.9508 69.0349L58.0108 68.6491C58.1761 68.5889 58.3026 68.5854 58.3901 68.6387C58.4749 68.6845 58.5528 68.8051 58.6239 69.0006L58.9564 69.914L63.3777 68.2026C63.5103 68.1458 63.6101 68.1393 63.6771 68.183C63.7516 68.224 63.8162 68.3197 63.8709 68.47L64.2075 69.3947C64.2622 69.545 64.2728 69.6561 64.2393 69.7279C64.2134 69.7969 64.1266 69.8625 63.979 69.9248L58.1 72.1923ZM56.4747 64.3938C56.8431 64.2598 57.0836 64.0786 57.1963 63.8502C57.3063 63.6144 57.3093 63.3537 57.2053 63.068C57.1014 62.7823 56.9328 62.5883 56.6997 62.4858C56.4639 62.3758 56.1618 62.3879 55.7934 62.522C55.4251 62.656 55.1859 62.841 55.0759 63.0768C54.9632 63.3051 54.9589 63.5621 55.0628 63.8478C55.1668 64.1335 55.3367 64.3313 55.5725 64.4413C55.8056 64.5437 56.1064 64.5279 56.4747 64.3938Z" fill="#776CF5"/>
<path d="M66.7387 61.8969L66.948 62.472L71.6554 60.6693C71.7907 60.6201 71.8905 60.6135 71.9547 60.6497C72.0265 60.6832 72.0898 60.7751 72.1445 60.9255L72.481 61.8501C72.533 61.993 72.5423 62.1003 72.5088 62.172C72.4829 62.2411 72.4022 62.3002 72.2669 62.3495L71.6734 62.5783L71.9319 63.2887L72.7284 62.986C72.8638 62.9368 72.9659 62.9251 73.035 62.9511C73.1115 62.9743 73.1731 63.0498 73.2196 63.1776L73.6054 64.2376C73.6519 64.3654 73.6533 64.4628 73.6096 64.5297C73.5734 64.594 73.4876 64.6508 73.3523 64.7L66.7178 67.2425C66.5824 67.2917 66.4765 67.3048 66.3999 67.2815C66.3309 67.2556 66.2731 67.1787 66.2266 67.0509L65.8408 65.9909C65.7943 65.8631 65.7891 65.7671 65.8254 65.7029C65.8691 65.6359 65.9586 65.5777 66.0939 65.5285L66.8904 65.2258L66.6319 64.5154L66.0947 64.7237C65.9245 64.7941 65.8008 64.8051 65.7236 64.7566C65.6463 64.7081 65.5684 64.5875 65.4897 64.3948L64.3529 61.5521C64.2743 61.3594 64.2541 61.222 64.2923 61.14C64.3278 61.0505 64.4307 60.9705 64.6008 60.9L69.3184 58.9148L69.1049 58.3284L64.0973 60.2532C63.9845 60.2943 63.9001 60.308 63.844 60.2943C63.7955 60.2779 63.7562 60.2284 63.7261 60.1457L63.2869 58.9391C63.2568 58.8564 63.2551 58.7932 63.2818 58.7495C63.3132 58.6955 63.3853 58.6479 63.498 58.6069L70.0762 56.085C70.2491 56.022 70.3779 56.0134 70.4627 56.0592C70.5447 56.0975 70.6176 56.2157 70.6812 56.4139L71.6375 59.3222C71.6984 59.5128 71.7135 59.6478 71.6828 59.7271C71.652 59.8064 71.5516 59.8813 71.3814 59.9517L66.7387 61.8969ZM68.6823 64.5353L70.14 63.9792L69.8815 63.2688L68.4238 63.8249L68.6823 64.5353Z" fill="#776CF5"/>
</g>
<defs>
<clipPath id="clip0_1411_1720">
<rect width="95" height="95" fill="white"/>
</clipPath>
</defs>
</svg>
