<svg width="15" height="24" viewBox="0 0 15 24" fill="none" xmlns="http://www.w3.org/2000/svg">
<path d="M3.88529 13.7678L7.11009 7.90677C7.22027 7.69584 7.35163 7.5979 7.49995 7.5979C7.64826 7.5979 7.78387 7.70337 7.89404 7.90677L11.1146 13.7678C11.2078 13.9336 11.2587 14.1445 11.2587 14.3931C11.2587 14.8978 11.0383 15.2896 10.7586 15.2896C10.623 15.2896 10.4917 15.1992 10.3942 15.0184L7.50419 9.73741L4.60568 15.0184C4.51245 15.1917 4.38109 15.2896 4.24125 15.2896C3.96157 15.2896 3.74121 14.8978 3.74121 14.3931C3.74121 14.152 3.79206 13.9336 3.88529 13.7678Z" fill="#DDDDDD"/>
</svg>
