<svg width="250" height="250" viewBox="0 0 250 250" fill="none" xmlns="http://www.w3.org/2000/svg">
<g clip-path="url(#clip0_23_3208)">
<path d="M237.219 80.4312C232.334 74.8021 226.297 70.2882 219.516 67.1953C212.736 64.1023 205.37 62.5025 197.917 62.5041H156.365L159.865 41.2437C161.103 33.7568 159.609 26.0743 155.655 19.5972C151.701 13.1202 145.55 8.28027 138.325 5.96026C131.1 3.64025 123.281 3.99473 116.296 6.95905C109.31 9.92336 103.623 15.3 100.271 22.1083L80.3333 62.5041H52.0833C38.2751 62.5206 25.0371 68.0133 15.2731 77.7772C5.50919 87.5412 0.0165402 100.779 0 114.587L0 166.671C0.0165402 180.479 5.50919 193.717 15.2731 203.481C25.0371 213.245 38.2751 218.738 52.0833 218.754H190.625C203.161 218.703 215.262 214.153 224.727 205.933C234.192 197.713 240.391 186.368 242.198 173.962L249.542 121.879C250.576 114.491 250.011 106.967 247.885 99.8159C245.759 92.665 242.121 86.0543 237.219 80.4312ZM20.8333 166.671V114.587C20.8333 106.299 24.1257 98.3509 29.9862 92.4903C35.8468 86.6298 43.7953 83.3374 52.0833 83.3374H72.9167V197.921H52.0833C43.7953 197.921 35.8468 194.628 29.9862 188.768C24.1257 182.907 20.8333 174.959 20.8333 166.671ZM228.865 118.952L221.51 171.035C220.435 178.473 216.726 185.277 211.058 190.211C205.39 195.145 198.14 197.881 190.625 197.921H93.75V80.5666C94.7317 79.7113 95.5443 78.6796 96.1458 77.5249L118.948 31.327C119.803 29.7846 121.012 28.4671 122.475 27.4829C123.939 26.4986 125.615 25.8756 127.366 25.6651C129.117 25.4546 130.893 25.6627 132.548 26.2721C134.202 26.8815 135.689 27.875 136.885 29.1708C137.909 30.3608 138.657 31.7621 139.077 33.2746C139.496 34.7871 139.577 36.3735 139.313 37.9208L133.813 71.2541C133.571 72.7435 133.656 74.2675 134.062 75.7208C134.467 77.1741 135.184 78.5219 136.161 79.6711C137.139 80.8202 138.355 81.7432 139.725 82.3763C141.094 83.0093 142.585 83.3373 144.094 83.3374H197.917C202.39 83.3368 206.811 84.2964 210.881 86.1514C214.951 88.0064 218.575 90.7136 221.509 94.0899C224.443 97.4662 226.618 101.433 227.887 105.722C229.156 110.011 229.489 114.523 228.865 118.952Z" fill="#776CF5"/>
</g>
<defs>
<clipPath id="clip0_23_3208">
<rect width="250" height="250" fill="white"/>
</clipPath>
</defs>
</svg>
