<svg width="24" height="24" viewBox="0 0 24 24" fill="none" xmlns="http://www.w3.org/2000/svg">
<path d="M23.9994 23.9994H21.9994C21.9973 22.1436 21.2591 20.3643 19.9468 19.052C18.6345 17.7397 16.8553 17.0016 14.9994 16.9994H10.1694V23.4134L0.876406 14.1204C0.313993 13.5579 -0.00195313 12.7949 -0.00195312 11.9994C-0.00195313 11.204 0.313993 10.441 0.876406 9.87845L10.1694 0.585449V6.99945H14.9994C17.3855 7.0021 19.6732 7.95116 21.3604 9.63841C23.0477 11.3257 23.9968 13.6133 23.9994 15.9994V23.9994ZM8.16941 5.41345L2.29041 11.2924C2.10294 11.48 1.99762 11.7343 1.99762 11.9994C1.99762 12.2646 2.10294 12.5189 2.29041 12.7064L8.16941 18.5854V14.9994H14.9994C16.3423 14.9994 17.6681 15.3001 18.8794 15.8797C20.0907 16.4592 21.1569 17.3028 21.9994 18.3484V15.9994C21.9973 14.1436 21.2591 12.3643 19.9468 11.052C18.6345 9.73974 16.8553 9.00157 14.9994 8.99945H8.16941V5.41345Z" fill="#999999"/>
</svg>
