<svg width="122" height="122" viewBox="0 0 122 122" fill="none" xmlns="http://www.w3.org/2000/svg">
<path d="M76.6143 104.106C100.487 95.4174 112.796 69.0207 104.107 45.1477C95.4182 21.2747 69.0215 8.96571 45.1485 17.6548C21.2755 26.3438 8.96648 52.7406 17.6555 76.6136C26.3446 100.487 52.7413 112.796 76.6143 104.106Z" stroke="#776CF5" stroke-width="3"/>
<path d="M74.9041 99.4089C96.1822 91.6643 107.153 68.1368 99.4087 46.8587C91.6641 25.5806 68.1365 14.6095 46.8585 22.3541C25.5804 30.0987 14.6093 53.6263 22.3539 74.9044C30.0985 96.1824 53.626 107.154 74.9041 99.4089Z" stroke="#776CF5" stroke-width="3"/>
<path d="M27.5256 84.7276L101.761 57.708" stroke="#776CF5" stroke-width="3"/>
<path d="M47.8638 99.6726L95.7881 82.2295" stroke="#776CF5" stroke-width="3"/>
<path d="M89.1754 42.2312C88.3936 41.7969 87.5276 41.5357 86.636 41.4652C85.7444 41.3947 84.8481 41.5166 84.0078 41.8227L79.3222 43.5281L78.8443 40.9871C78.6767 40.092 78.1929 39.287 77.4812 38.7189C76.7695 38.1508 75.8773 37.8575 74.9674 37.8924C74.0574 37.9274 73.1903 38.2882 72.5242 38.9092C71.8582 39.5302 71.4375 40.3699 71.339 41.2752L70.7487 46.6486L67.5632 47.808C66.0068 48.3766 64.7395 49.5393 64.0392 51.0411C63.3389 52.5428 63.2629 54.261 63.8277 55.8188L65.9653 61.6918C66.5339 63.2482 67.6966 64.5155 69.1984 65.2158C70.7001 65.9161 72.4183 65.9921 73.976 65.4273L89.5984 59.7412C91.0099 59.2209 92.1878 58.2112 92.9177 56.8958C93.6476 55.5804 93.881 54.0467 93.5756 52.5737L92.2661 46.3992C92.0795 45.5236 91.7069 44.6984 91.1737 43.9793C90.6405 43.2602 89.959 42.664 89.1754 42.2312ZM68.3146 60.8368L66.1769 54.9637C65.8368 54.0291 65.8818 52.9977 66.3021 52.0963C66.7225 51.1949 67.4836 50.4974 68.4182 50.1573L70.7675 49.3022L75.4702 62.223L73.121 63.0781C72.1864 63.4182 71.155 63.3732 70.2536 62.9529C69.3522 62.5325 68.6547 61.7714 68.3146 60.8368ZM89.8143 46.9178L91.1227 53.0927C91.3067 53.9755 91.1677 54.895 90.7311 55.684C90.2944 56.473 89.5891 57.0791 88.7434 57.392L77.8195 61.368L73.003 48.1347C73.0786 47.998 73.1279 47.8483 73.1483 47.6934L73.8234 41.5481C73.8566 41.3391 73.9388 41.1409 74.0634 40.9699C74.188 40.7988 74.3515 40.6598 74.5403 40.5642C74.7291 40.4686 74.9379 40.4192 75.1495 40.42C75.3611 40.4208 75.5696 40.4718 75.7576 40.5688C75.9219 40.661 76.0638 40.7883 76.1731 40.9416C76.2825 41.095 76.3567 41.2706 76.3904 41.4559L77.1383 45.4404C77.1722 45.6182 77.2444 45.7866 77.3498 45.9338C77.4551 46.081 77.5912 46.2036 77.7487 46.2931C77.9061 46.3825 78.081 46.4367 78.2615 46.4519C78.4419 46.4671 78.6235 46.4429 78.7936 46.381L84.8628 44.1719C85.3672 43.9883 85.9051 43.915 86.4402 43.9572C86.9753 43.9993 87.4951 44.1558 87.9645 44.4161C88.4339 44.6764 88.842 45.0345 89.1611 45.466C89.4802 45.8976 89.703 46.3927 89.8143 46.9178Z" fill="#776CF5"/>
<path d="M52.1852 54.6307C51.4033 54.1964 50.5373 53.9351 49.6458 53.8647C48.7542 53.7942 47.8579 53.9161 47.0176 54.2222L42.332 55.9276L41.8541 53.3865C41.6865 52.4915 41.2027 51.6865 40.491 51.1184C39.7793 50.5503 38.8871 50.257 37.9771 50.2919C37.0672 50.3269 36.2001 50.6877 35.534 51.3087C34.8679 51.9297 34.4473 52.7694 34.3488 53.6747L33.7585 59.0481L30.5729 60.2075C29.0166 60.7761 27.7492 61.9388 27.0489 63.4406C26.3487 64.9423 26.2726 66.6605 26.8375 68.2183L28.9751 74.0913C29.5437 75.6477 30.7064 76.9149 32.2081 77.6152C33.7099 78.3155 35.4281 78.3916 36.9858 77.8268L52.6082 72.1407C54.0197 71.6204 55.1975 70.6106 55.9274 69.2952C56.6573 67.9799 56.8908 66.4462 56.5854 64.9732L55.2758 58.7987C55.0892 57.9231 54.7167 57.0979 54.1835 56.3788C53.6503 55.6597 52.9688 55.0635 52.1852 54.6307ZM31.3243 73.2363L29.1867 67.3632C28.8466 66.4286 28.8916 65.3971 29.3119 64.4957C29.7322 63.5943 30.4934 62.8969 31.428 62.5568L33.7772 61.7017L38.48 74.6225L36.1308 75.4776C35.1962 75.8177 34.1648 75.7727 33.2634 75.3524C32.362 74.932 31.6645 74.1709 31.3243 73.2363ZM52.8241 59.3173L54.1324 65.4922C54.3165 66.375 54.1775 67.2945 53.7409 68.0835C53.3042 68.8724 52.5989 69.4785 51.7532 69.7915L40.8292 73.7674L36.0127 60.5342C36.0883 60.3975 36.1376 60.2478 36.1581 60.0929L36.8332 53.9476C36.8663 53.7386 36.9486 53.5404 37.0732 53.3694C37.1978 53.1983 37.3612 53.0593 37.55 52.9637C37.7389 52.8681 37.9476 52.8187 38.1593 52.8195C38.3709 52.8203 38.5793 52.8713 38.7674 52.9683C38.9317 53.0605 39.0735 53.1878 39.1829 53.3411C39.2923 53.4945 39.3665 53.67 39.4002 53.8554L40.1481 57.8399C40.182 58.0177 40.2541 58.1861 40.3595 58.3333C40.4649 58.4805 40.601 58.6031 40.7584 58.6926C40.9158 58.782 41.0908 58.8362 41.2712 58.8514C41.4517 58.8666 41.6332 58.8424 41.8034 58.7804L47.8726 56.5714C48.377 56.3878 48.9149 56.3145 49.45 56.3567C49.9851 56.3988 50.5049 56.5553 50.9743 56.8156C51.4437 57.0759 51.8518 57.434 52.1709 57.8655C52.49 58.2971 52.7128 58.7922 52.8241 59.3173Z" fill="#776CF5"/>
<path d="M65.4205 29.5935C64.6387 29.1592 63.7727 28.898 62.8811 28.8275C61.9896 28.757 61.0933 28.8789 60.2529 29.185L55.5674 30.8904L55.0895 28.3494C54.9218 27.4543 54.438 26.6493 53.7263 26.0812C53.0146 25.5131 52.1224 25.2198 51.2125 25.2547C50.3025 25.2897 49.4354 25.6505 48.7694 26.2715C48.1033 26.8925 47.6827 27.7322 47.5841 28.6375L46.9939 34.0109L43.8083 35.1704C42.2519 35.739 40.9846 36.9016 40.2843 38.4034C39.584 39.9051 39.508 41.6233 40.0728 43.1811L42.2105 49.0541C42.7791 50.6105 43.9418 51.8779 45.4435 52.5781C46.9452 53.2784 48.6634 53.3545 50.2212 52.7896L65.8436 47.1035C67.2551 46.5832 68.4329 45.5735 69.1628 44.2581C69.8927 42.9427 70.1262 41.409 69.8207 39.936L68.5112 33.7615C68.3246 32.8859 67.9521 32.0607 67.4189 31.3416C66.8856 30.6225 66.2041 30.0263 65.4205 29.5935ZM44.5597 48.1991L42.4221 42.326C42.0819 41.3914 42.127 40.36 42.5473 39.4586C42.9676 38.5572 43.7288 37.8598 44.6633 37.5196L47.0126 36.6645L51.7154 49.5853L49.3661 50.4404C48.4315 50.7805 47.4001 50.7355 46.4987 50.3152C45.5974 49.8949 44.8999 49.1337 44.5597 48.1991ZM66.0595 34.2801L67.3678 40.455C67.5518 41.3378 67.4129 42.2573 66.9762 43.0463C66.5396 43.8353 65.8342 44.4414 64.9885 44.7543L54.0646 48.7303L49.2481 35.497C49.3237 35.3603 49.373 35.2106 49.3934 35.0557L50.0686 28.9105C50.1017 28.7014 50.1839 28.5033 50.3086 28.3322C50.4332 28.1612 50.5966 28.0221 50.7854 27.9265C50.9742 27.8309 51.183 27.7815 51.3946 27.7823C51.6063 27.7831 51.8147 27.8341 52.0028 27.9311C52.167 28.0233 52.3089 28.1506 52.4183 28.3039C52.5277 28.4573 52.6019 28.6329 52.6356 28.8182L53.3835 32.8027C53.4174 32.9805 53.4895 33.1489 53.5949 33.2961C53.7003 33.4434 53.8364 33.5659 53.9938 33.6554C54.1512 33.7448 54.3262 33.799 54.5066 33.8142C54.687 33.8294 54.8686 33.8052 55.0387 33.7433L61.108 31.5342C61.6123 31.3506 62.1502 31.2774 62.6853 31.3195C63.2204 31.3616 63.7402 31.5181 64.2097 31.7784C64.6791 32.0387 65.0871 32.3968 65.4062 32.8284C65.7254 33.2599 65.9481 33.755 66.0595 34.2801Z" fill="#776CF5"/>
<path d="M50.6855 87.4848L50.8333 87.8908L53.0044 87.0495C53.1773 86.9865 53.3048 86.9742 53.3868 87.0124C53.4736 87.0404 53.541 87.1436 53.5889 87.322L54.1687 89.2308C54.2139 89.4017 54.2197 89.523 54.1863 89.5948C54.1603 89.6638 54.0622 89.7335 53.8921 89.804L49.5231 91.624L49.6831 92.0638L53.9948 90.3668C54.1273 90.31 54.2258 90.2998 54.29 90.336C54.3618 90.3694 54.4209 90.4501 54.4675 90.5779L54.6891 91.1868C54.7356 91.3146 54.7408 91.4106 54.7045 91.4749C54.6759 91.5364 54.5939 91.5918 54.4585 91.641L48.7036 93.8634C48.5334 93.9338 48.4111 93.9486 48.3365 93.9076C48.262 93.8666 48.1895 93.761 48.1191 93.5908L47.366 91.7323C47.2956 91.5621 47.2809 91.4398 47.3218 91.3653C47.3601 91.2833 47.4643 91.207 47.6345 91.1366L52.0783 89.2765L51.9305 88.8706L47.0889 90.7605C46.9762 90.8015 46.8931 90.819 46.8398 90.8128C46.794 90.804 46.7574 90.7619 46.7301 90.6868L46.41 89.8072C46.3799 89.7245 46.3795 89.6651 46.4089 89.6288C46.443 89.5823 46.5165 89.5386 46.6293 89.4975L48.9286 88.6223L48.7808 88.2164L46.3011 89.1573C46.1658 89.2065 46.0598 89.2195 45.9833 89.1963C45.9142 89.1704 45.8565 89.0935 45.8099 88.9657L45.5309 88.1989C45.4843 88.0711 45.4792 87.9751 45.5154 87.9108C45.5591 87.8438 45.6486 87.7857 45.784 87.7364L52.644 85.1119C52.7793 85.0626 52.8815 85.051 52.9505 85.0769C53.0271 85.1001 53.0886 85.1757 53.1352 85.3035L53.4142 86.0702C53.4608 86.198 53.4622 86.2954 53.4184 86.3624C53.3822 86.4267 53.2965 86.4834 53.1611 86.5327L50.6855 87.4848ZM48.8897 85.5333L45.8792 87.3314C45.7746 87.395 45.6871 87.4354 45.6168 87.4525C45.5511 87.4594 45.479 87.4132 45.4004 87.3142L44.8209 86.529C44.7423 86.4299 44.693 86.3414 44.6732 86.2635C44.6533 86.1856 44.6933 86.12 44.7931 86.0666L47.1886 84.6839C47.2884 84.6306 47.3475 84.5708 47.366 84.5044C47.3817 84.4306 47.3703 84.3411 47.332 84.2358L47.3197 84.202L44.8851 85.1265C44.7498 85.1757 44.6438 85.1887 44.5673 85.1655C44.4982 85.1396 44.4405 85.0627 44.3939 84.9349L44.1107 84.1568C44.0642 84.029 44.0591 83.933 44.0953 83.8687C44.139 83.8018 44.2285 83.7436 44.3638 83.6944L46.7985 82.7699L46.6507 82.364C46.5905 82.1986 46.5785 82.0838 46.6148 82.0195C46.6482 81.9477 46.7439 81.8831 46.9018 81.8257L48.0294 81.4152C48.1948 81.355 48.3082 81.3393 48.3698 81.368C48.4388 81.3939 48.5048 81.4934 48.5677 81.6663L48.7031 82.0384L51.1111 81.1109C51.2465 81.0616 51.3486 81.05 51.4177 81.0759C51.4942 81.0991 51.5558 81.1746 51.6023 81.3024L51.8855 82.0805C51.932 82.2083 51.9334 82.3057 51.8897 82.3727C51.8535 82.4369 51.7677 82.4937 51.6324 82.543L49.2244 83.4705L49.249 83.5381C49.2873 83.6434 49.3362 83.7192 49.3957 83.7657C49.4524 83.8046 49.5362 83.8125 49.6469 83.7892L52.3297 83.1958C52.4404 83.1725 52.5132 83.1971 52.5481 83.2696C52.583 83.342 52.6022 83.4415 52.6056 83.5679L52.6664 84.5418C52.6699 84.6683 52.6429 84.7462 52.5855 84.7756C52.5281 84.805 52.4365 84.8341 52.3107 84.8628L48.8897 85.5333Z" fill="#776CF5"/>
<path d="M54.4598 85.5114C54.2725 85.4178 54.2393 85.2681 54.3602 85.0623L55.7385 82.8495C55.8061 82.7312 55.8218 82.6106 55.7855 82.4876C55.754 82.3543 55.7137 82.22 55.6644 82.0847L55.0036 80.2692C54.9325 80.0737 54.9147 79.9312 54.9502 79.8417C54.9905 79.7419 55.0896 79.6633 55.2474 79.6058L56.3074 79.22C56.4653 79.1625 56.588 79.1605 56.6755 79.2137C56.7678 79.2568 56.8495 79.376 56.9206 79.5715L57.5814 81.387C57.6306 81.5223 57.6823 81.6525 57.7363 81.7775C57.7903 81.9026 57.8837 81.9836 58.0163 82.0204L60.4247 82.6379C60.5471 82.67 60.6206 82.7199 60.6452 82.7876C60.6698 82.8552 60.6671 82.9413 60.6371 83.0459L60.2448 84.2486C60.2099 84.3635 60.1522 84.427 60.0715 84.4394C59.9882 84.4442 59.8904 84.4329 59.7783 84.4056L57.374 83.7994L56.0305 85.8974C55.9649 85.9979 55.9011 86.068 55.8389 86.1076C55.7739 86.1398 55.6851 86.1296 55.5723 86.077L54.4598 85.5114ZM62.1123 86.1868L57.8458 87.8674C57.7132 87.9241 57.6086 87.9409 57.5321 87.9177C57.4603 87.8842 57.4011 87.8036 57.3546 87.6758L56.9688 86.6158C56.9223 86.488 56.9172 86.392 56.9534 86.3277C56.9971 86.2607 57.0866 86.2026 57.2219 86.1534L63.0333 83.9105C63.2034 83.8401 63.3323 83.8315 63.4198 83.8848C63.5073 83.938 63.5828 84.0638 63.6465 84.262L64.6983 87.4676C64.7619 87.6657 64.776 87.8096 64.7404 87.8992C64.7152 87.9935 64.6199 88.0708 64.4545 88.1309L63.3945 88.5167C63.2366 88.5742 63.1102 88.5777 63.0152 88.5271C62.9229 88.4841 62.8449 88.3635 62.7813 88.1653L62.1123 86.1868ZM60.8601 81.3429L59.7068 81.7882C59.5742 81.845 59.4697 81.8618 59.3931 81.8386C59.3213 81.8051 59.2622 81.7245 59.2157 81.5967L58.8299 80.5367C58.7834 80.4089 58.7796 80.3166 58.8185 80.2599C58.8622 80.1929 58.9504 80.131 59.083 80.0742L60.2362 79.6289L59.8709 78.6253C59.7998 78.4299 59.782 78.2874 59.8175 78.1978C59.8578 78.098 59.9569 78.0194 60.1147 77.962L61.1747 77.5762C61.3401 77.516 61.4665 77.5125 61.5541 77.5658C61.6388 77.6116 61.7168 77.7322 61.7879 77.9276L63.4542 82.5058C63.5254 82.7013 63.5446 82.8475 63.5118 82.9446C63.4763 83.0341 63.3758 83.109 63.2104 83.1692L62.1505 83.555C61.9926 83.6125 61.8675 83.6197 61.7752 83.5766C61.6877 83.5234 61.6084 83.399 61.5373 83.2035L60.8601 81.3429Z" fill="#776CF5"/>
<path d="M69.6382 80.0887L69.4453 79.5587C68.7619 79.6457 68.172 79.5455 67.6757 79.2578C67.1767 78.9627 66.8163 78.5107 66.5947 77.9018C66.4579 77.5259 66.4024 77.163 66.4283 76.813C66.4514 76.4556 66.5474 76.1227 66.7161 75.8144C66.8923 75.5033 67.1404 75.2258 67.4602 74.9817C67.7772 74.7301 68.1613 74.5222 68.6123 74.358C69.0634 74.1938 69.4912 74.1062 69.8959 74.0952C70.2977 74.0766 70.6624 74.1312 70.9898 74.2589C71.3248 74.3839 71.616 74.5758 71.8635 74.8348C72.1083 75.0863 72.299 75.3999 72.4358 75.7758C72.6575 76.3847 72.6706 76.9588 72.4753 77.4982C72.2875 78.0348 71.9165 78.489 71.3623 78.861L71.5388 79.3459L73.1503 78.7211C73.2856 78.6718 73.3878 78.6602 73.4568 78.6861C73.5334 78.7093 73.5949 78.7848 73.6414 78.9126L74.0272 79.9726C74.0737 80.1004 74.0751 80.1978 74.0314 80.2648C73.9952 80.3291 73.9094 80.3858 73.7741 80.4351L68.6957 82.4112C68.5604 82.4604 68.4545 82.4734 68.3779 82.4502C68.3089 82.4243 68.2511 82.3474 68.2046 82.2196L67.8188 81.1596C67.7723 81.0318 67.7671 80.9358 67.8033 80.8715C67.847 80.8045 67.9366 80.7464 68.0719 80.6972L69.6382 80.0887ZM72.502 74.0278C72.4308 73.8323 72.413 73.6898 72.4485 73.6003C72.4888 73.5005 72.5879 73.4218 72.7458 73.3644L73.8058 72.9786C73.9711 72.9184 74.0976 72.9149 74.1851 72.9682C74.2699 73.014 74.3478 73.1346 74.4189 73.33L75.1987 75.4725L75.9461 75.175C76.0786 75.1182 76.1808 75.1066 76.2526 75.1401C76.3291 75.1633 76.3907 75.2388 76.4372 75.3666L76.823 76.4265C76.8695 76.5543 76.8709 76.6517 76.8272 76.7187C76.7882 76.7755 76.7025 76.8322 76.5699 76.889L75.8226 77.1865L76.5778 79.2614C76.6489 79.4568 76.6681 79.6031 76.6353 79.7002C76.5998 79.7897 76.4994 79.8646 76.334 79.9248L75.274 80.3106C75.1161 80.368 74.991 80.3752 74.8988 80.3322C74.8113 80.2789 74.7319 80.1546 74.6608 79.9591L72.502 74.0278ZM71.4812 85.5732C71.3185 85.6409 71.1934 85.6481 71.1059 85.5948C71.0184 85.5415 70.9391 85.4171 70.868 85.2217L70.0882 83.0792C70.017 82.8837 69.9992 82.7412 70.0347 82.6517C70.075 82.5519 70.1741 82.4733 70.332 82.4158L71.392 82.03C71.5573 81.9698 71.6838 81.9663 71.7713 82.0196C71.8561 82.0654 71.934 82.186 72.0051 82.3815L72.3376 83.2949L76.7589 81.5835C76.8915 81.5267 76.9913 81.5202 77.0583 81.5639C77.1328 81.6049 77.1974 81.7006 77.2521 81.8509L77.5887 82.7756C77.6434 82.9259 77.654 83.037 77.6205 83.1088C77.5946 83.1778 77.5078 83.2434 77.3602 83.3057L71.4812 85.5732ZM69.8559 77.7747C70.2243 77.6407 70.4648 77.4595 70.5775 77.2311C70.6875 76.9953 70.6905 76.7346 70.5865 76.4489C70.4826 76.1632 70.314 75.9692 70.0809 75.8667C69.8451 75.7567 69.543 75.7688 69.1746 75.9029C68.8063 76.0369 68.5671 76.2219 68.4571 76.4577C68.3444 76.686 68.3401 76.943 68.444 77.2287C68.548 77.5144 68.7179 77.7122 68.9537 77.8222C69.1868 77.9246 69.4876 77.9088 69.8559 77.7747Z" fill="#776CF5"/>
<path d="M80.12 75.2778L80.3293 75.8529L85.0367 74.0502C85.172 74.001 85.2718 73.9944 85.336 74.0306C85.4078 74.0641 85.4711 74.1559 85.5258 74.3063L85.8623 75.231C85.9143 75.3739 85.9236 75.4812 85.8901 75.5529C85.8642 75.622 85.7835 75.6811 85.6482 75.7304L85.0547 75.9592L85.3132 76.6696L86.1097 76.3669C86.2451 76.3177 86.3472 76.306 86.4163 76.332C86.4928 76.3552 86.5544 76.4307 86.6009 76.5585L86.9867 77.6185C87.0332 77.7463 87.0346 77.8437 86.9909 77.9106C86.9547 77.9749 86.8689 78.0317 86.7336 78.0809L80.0991 80.6234C79.9637 80.6726 79.8578 80.6857 79.7812 80.6624C79.7122 80.6365 79.6544 80.5596 79.6079 80.4318L79.2221 79.3717C79.1756 79.2439 79.1704 79.148 79.2067 79.0838C79.2504 79.0168 79.3399 78.9586 79.4752 78.9094L80.2717 78.6066L80.0132 77.8963L79.476 78.1046C79.3058 78.175 79.1821 78.1859 79.1049 78.1374C79.0276 78.0889 78.9497 77.9683 78.871 77.7756L77.7342 74.933C77.6556 74.7403 77.6354 74.6028 77.6736 74.5208C77.7091 74.4313 77.812 74.3514 77.9821 74.2809L82.6997 72.2957L82.4862 71.7092L77.4786 73.6341C77.3658 73.6752 77.2814 73.6889 77.2253 73.6752C77.1768 73.6588 77.1375 73.6092 77.1074 73.5265L76.6682 72.32C76.6381 72.2373 76.6364 72.1741 76.6631 72.1304C76.6945 72.0764 76.7666 72.0288 76.8793 71.9878L83.4575 69.4658C83.6304 69.4028 83.7592 69.3943 83.844 69.4401C83.926 69.4784 83.9989 69.5966 84.0625 69.7948L85.0188 72.7031C85.0797 72.8937 85.0948 73.0287 85.0641 73.108C85.0333 73.1873 84.9329 73.2621 84.7627 73.3325L80.12 75.2778ZM82.0636 77.9162L83.5213 77.3601L83.2628 76.6496L81.8051 77.2058L82.0636 77.9162Z" fill="#776CF5"/>
</svg>
