<svg width="250" height="250" viewBox="0 0 250 250" fill="none" xmlns="http://www.w3.org/2000/svg">
<g clip-path="url(#clip0_23_3192)">
<path d="M248.29 91.6073C246.159 84.825 241.902 78.9085 236.149 74.7327C230.395 70.5568 223.451 68.3434 216.342 68.4198H170.832L157.009 25.3365C154.835 18.5548 150.564 12.6387 144.811 8.44133C139.057 4.24394 132.12 1.98218 124.998 1.98218C117.877 1.98218 110.939 4.24394 105.186 8.44133C99.4331 12.6387 95.1617 18.5548 92.9879 25.3365L79.165 68.4198H33.6546C26.5686 68.4299 19.667 70.679 13.9356 74.8459C8.20426 79.0128 3.93627 84.8843 1.74128 91.6218C-0.453715 98.3592 -0.46343 105.618 1.71352 112.361C3.89047 119.105 8.14273 124.988 13.8629 129.17L50.9046 156.253L36.8213 199.868C34.5453 206.632 34.5165 213.951 36.7391 220.733C38.9616 227.515 43.3165 233.398 49.1546 237.503C54.8926 241.74 61.8462 244.01 68.9791 243.975C76.112 243.939 83.0425 241.6 88.7379 237.305L124.998 210.618L161.269 237.274C166.997 241.487 173.913 243.775 181.023 243.81C188.133 243.845 195.071 241.624 200.84 237.467C206.608 233.31 210.91 227.431 213.126 220.675C215.343 213.919 215.36 206.634 213.175 199.868L199.092 156.253L236.175 129.17C241.961 125.04 246.263 119.157 248.445 112.392C250.627 105.627 250.573 98.3391 248.29 91.6073ZM223.884 112.347L180.717 143.899C178.944 145.192 177.625 147.013 176.948 149.1C176.271 151.188 176.27 153.436 176.946 155.524L193.353 206.253C194.183 208.826 194.176 211.596 193.332 214.165C192.489 216.733 190.853 218.969 188.659 220.549C186.465 222.129 183.827 222.973 181.123 222.959C178.42 222.945 175.79 222.074 173.613 220.472L131.165 189.222C129.377 187.909 127.217 187.2 124.998 187.2C122.78 187.2 120.62 187.909 118.832 189.222L76.3838 220.472C74.2075 222.096 71.5706 222.985 68.8553 223.009C66.1399 223.034 63.4873 222.193 61.282 220.609C59.0766 219.025 57.4332 216.779 56.59 214.198C55.7467 211.617 55.7475 208.834 56.5921 206.253L73.0504 155.524C73.7266 153.436 73.7261 151.188 73.049 149.1C72.3718 147.013 71.0526 145.192 69.2796 143.899L26.1129 112.347C23.939 110.755 22.3237 108.517 21.4977 105.953C20.6718 103.388 20.6774 100.628 21.5138 98.0667C22.3502 95.5054 23.9746 93.274 26.155 91.6912C28.3354 90.1084 30.9603 89.255 33.6546 89.2531H86.7796C88.985 89.2531 91.1334 88.5531 92.9155 87.2539C94.6976 85.9548 96.0214 84.1236 96.6963 82.024L112.842 31.7011C113.671 29.1259 115.295 26.8801 117.482 25.287C119.668 23.6938 122.304 22.8355 125.009 22.8355C127.714 22.8355 130.349 23.6938 132.536 25.287C134.722 26.8801 136.347 29.1259 137.175 31.7011L153.321 82.024C153.996 84.1236 155.32 85.9548 157.102 87.2539C158.884 88.5531 161.033 89.2531 163.238 89.2531H216.363C219.057 89.255 221.682 90.1084 223.862 91.6912C226.043 93.274 227.667 95.5054 228.504 98.0667C229.34 100.628 229.346 103.388 228.52 105.953C227.694 108.517 226.079 110.755 223.905 112.347H223.884Z" fill="#374957"/>
</g>
<defs>
<clipPath id="clip0_23_3192">
<rect width="250" height="250" fill="white"/>
</clipPath>
</defs>
</svg>
