<svg width="70" height="70" viewBox="0 0 70 70" fill="none" xmlns="http://www.w3.org/2000/svg">
<g clip-path="url(#clip0_849_1511)">
<path d="M-6.40266e-05 17.5141C-0.0584545 16.8454 0.0429961 16.1724 0.295887 15.5506C0.548778 14.9289 0.945868 14.3762 1.45442 13.9381C2.44991 13.2038 3.6544 12.8076 4.89141 12.8076C6.12842 12.8076 7.33294 13.2038 8.32844 13.9381C8.83807 14.3757 9.23651 14.9281 9.49098 15.5498C9.74545 16.1715 9.84867 16.8447 9.79216 17.5141V40.6745H-6.40266e-05V17.5141Z" fill="#857AFF"/>
<path d="M31.9151 50.8095C31.4056 50.8095 30.9887 50.8095 30.5904 50.7446C30.2346 50.7043 29.8857 50.6171 29.5528 50.4852C29.2204 50.3624 28.9081 50.1906 28.6264 49.9757C28.3162 49.7361 28.0279 49.4695 27.7648 49.179C26.8648 49.8471 25.8724 50.3807 24.8188 50.7632C23.6885 51.1621 22.497 51.3597 21.2984 51.3468C20.2399 51.357 19.1863 51.2007 18.1764 50.8836C17.2412 50.5994 16.3698 50.1369 15.6102 49.5218C14.8763 48.9059 14.2852 48.1377 13.8778 47.2706C13.437 46.3127 13.2185 45.2676 13.2386 44.2134C13.2293 43.3919 13.3577 42.5746 13.6184 41.7955C13.8769 41.0716 14.2322 40.386 14.6745 39.7574C15.1314 39.0903 15.6527 38.4697 16.2309 37.9045C16.8485 37.3301 17.4878 36.7557 18.1486 36.1814L17.3148 35.0048C16.6939 34.0557 16.1219 33.0755 15.601 32.0681C15.1874 31.2955 14.968 30.4338 14.9617 29.5575C14.9469 28.6573 15.1604 27.7681 15.5824 26.9728C15.998 26.208 16.573 25.5414 17.2685 25.0181C18.0255 24.4495 18.8793 24.0226 19.7883 23.7581C21.786 23.1841 23.905 23.1841 25.9027 23.7581C26.7656 23.9984 27.5761 24.3974 28.2928 24.9347C28.9481 25.4285 29.486 26.0612 29.8678 26.7875C30.2559 27.5371 30.4532 28.3707 30.4421 29.2147C30.4354 30.5366 30.0355 31.8265 29.2934 32.9204C28.2574 34.3682 26.9748 35.6225 25.5043 36.6261L24.9577 37.0429L27.8296 41.1192C27.9964 40.8042 28.1539 40.48 28.2928 40.1928C28.4341 39.8703 28.5548 39.5392 28.6542 39.2015C28.7586 38.8345 28.9375 38.4928 29.1798 38.198C29.4221 37.9031 29.7225 37.6613 30.0623 37.4876C30.7163 37.1811 31.4639 37.1413 32.1467 37.3765C32.479 37.4643 32.7869 37.6268 33.047 37.8515C33.3071 38.0763 33.5124 38.3574 33.6475 38.6734C33.8987 39.3678 33.8987 40.1283 33.6475 40.8227C33.3761 41.6279 33.0511 42.414 32.6748 43.1758C32.2412 44.0556 31.7361 44.8984 31.1647 45.6957C31.2971 45.8387 31.4581 45.9524 31.6372 46.0292C31.823 46.0866 32.0173 46.1117 32.2116 46.1033H33.0731C33.4348 46.072 33.7988 46.1252 34.1364 46.2587C34.474 46.3921 34.776 46.6021 35.0186 46.8722C35.4029 47.34 35.6154 47.9252 35.6208 48.5305C35.6186 48.8027 35.5684 49.0724 35.4726 49.3272C35.3737 49.6056 35.2193 49.8609 35.0186 50.0776C34.7894 50.3103 34.5193 50.4987 34.2219 50.6335C33.8591 50.7883 33.4675 50.864 33.0731 50.8558L31.9151 50.8095ZM22.0673 45.9365C22.5093 45.9346 22.9468 45.8465 23.355 45.6771C23.8138 45.4988 24.2493 45.2654 24.652 44.9823L21.178 40.2669C20.6488 40.749 20.1621 41.276 19.7235 41.8418C19.345 42.3294 19.1397 42.9291 19.1398 43.5464C19.1052 43.8983 19.161 44.2533 19.3021 44.5775C19.4432 44.9018 19.6647 45.1846 19.9458 45.3992C20.5809 45.7922 21.3217 45.9798 22.0673 45.9365ZM20.7981 30.1319C20.7923 30.5528 20.8876 30.969 21.076 31.3455C21.2817 31.7277 21.5075 32.0988 21.7523 32.4572L22.2619 33.189L22.9289 32.6795C23.4898 32.2525 23.9833 31.7434 24.3926 31.1695C24.6779 30.7514 24.8326 30.2581 24.8373 29.752C24.8411 29.5283 24.7949 29.3065 24.7019 29.1029C24.6089 28.8993 24.4716 28.7191 24.3 28.5755C23.8901 28.2363 23.3674 28.0643 22.8363 28.0937C22.5558 28.0805 22.276 28.1292 22.0165 28.2365C21.7571 28.3438 21.5245 28.507 21.3354 28.7145C20.9864 29.1037 20.7948 29.609 20.7981 30.1319Z" fill="#857AFF"/>
<path d="M37.2326 27.1209C37.1574 24.7658 37.66 22.428 38.6964 20.3118C39.5909 18.5673 40.8785 17.0545 42.4576 15.8928C43.9953 14.7749 45.7303 13.9577 47.5715 13.4841C51.1171 12.5206 54.8556 12.5206 58.4013 13.4841C60.2388 13.9596 61.9705 14.7768 63.5058 15.8928C65.0907 17.0586 66.3896 18.5697 67.3041 20.3118C68.3516 22.4247 68.8608 24.7638 68.7864 27.1209V37.4319C68.8194 39.2009 68.5467 40.9622 67.9804 42.6384C67.4949 44.0511 66.7607 45.3657 65.8126 46.5201L68.9254 50.0497C69.3622 50.5631 69.6787 51.1677 69.8518 51.8192C69.9857 52.4077 69.9857 53.0187 69.8518 53.6072C69.724 54.1872 69.4745 54.7334 69.1199 55.2099C68.7646 55.6845 68.325 56.0896 67.8229 56.405C67.2823 56.7241 66.6944 56.9555 66.0813 57.0905C65.4739 57.2286 64.8485 57.2693 64.2284 57.2109C63.6062 57.1464 63.0006 56.9707 62.4404 56.6921C61.8671 56.3993 61.3669 55.9814 60.9767 55.4693L57.725 51.2263C56.1682 51.5991 54.5732 51.7888 52.9725 51.7914C51.1512 51.7804 49.339 51.5344 47.5807 51.0595C45.7387 50.5932 44.0029 49.7787 42.4669 48.6601C40.8819 47.4932 39.5856 45.9783 38.6779 44.2318C37.6304 42.1222 37.1212 39.7861 37.1956 37.4319L37.2326 27.1209ZM59.1794 26.8337C59.2019 25.9115 59.015 24.9961 58.6329 24.1564C58.2943 23.4419 57.8044 22.8096 57.1969 22.3036C56.6183 21.8096 55.9476 21.435 55.2237 21.2011C53.7848 20.732 52.2342 20.732 50.7954 21.2011C50.0714 21.435 49.4008 21.8096 48.8221 22.3036C48.2121 22.8071 47.7216 23.44 47.3862 24.1564C46.9996 24.9946 46.8125 25.9111 46.8396 26.8337V37.7099C46.8236 38.595 47.0273 39.4704 47.4325 40.2575C47.7994 40.983 48.3027 41.6309 48.9148 42.1659C49.5023 42.6799 50.181 43.079 50.9158 43.3425C52.261 43.874 53.758 43.874 55.1032 43.3425C55.838 43.079 56.5168 42.6799 57.1043 42.1659C57.7136 41.6283 58.2164 40.9809 58.5866 40.2575C58.9918 39.4704 59.1955 38.595 59.1794 37.7099V26.8337Z" fill="#857AFF"/>
<path d="M5.10455 51.847C7.92372 51.847 10.2091 49.5617 10.2091 46.7425C10.2091 43.9233 7.92372 41.6379 5.10455 41.6379C2.28539 41.6379 0 43.9233 0 46.7425C0 49.5617 2.28539 51.847 5.10455 51.847Z" fill="#857AFF"/>
</g>
<defs>
<clipPath id="clip0_849_1511">
<rect width="70" height="44.4772" fill="white" transform="translate(0 12.7615)"/>
</clipPath>
</defs>
</svg>
