<svg width="20" height="21" viewBox="0 0 20 21" fill="none" xmlns="http://www.w3.org/2000/svg">
<g clip-path="url(#clip0_586_2569)">
<path d="M1.10551 10.8336L4.07217 13.0002L2.94551 16.4894C2.76343 17.0306 2.76113 17.6161 2.93893 18.1587C3.11673 18.7012 3.46513 19.1718 3.93217 19.5002C4.39122 19.8392 4.9475 20.0208 5.51813 20.018C6.08877 20.0151 6.64321 19.828 7.09884 19.4844L9.99967 17.3494L12.9013 19.4819C13.3596 19.819 13.9128 20.002 14.4816 20.0048C15.0505 20.0076 15.6055 19.8299 16.067 19.4973C16.5285 19.1648 16.8726 18.6945 17.0499 18.154C17.2272 17.6135 17.2286 17.0307 17.0538 16.4894L15.9272 13.0002L18.8938 10.8336C19.3515 10.499 19.6916 10.0284 19.8658 9.48891C20.04 8.94944 20.0392 8.36873 19.8636 7.82974C19.688 7.29074 19.3465 6.82102 18.888 6.48767C18.4295 6.15432 17.8774 5.97439 17.3105 5.97358H13.6663L12.5605 2.52691C12.3866 1.98438 12.0449 1.51109 11.5846 1.1753C11.1244 0.839511 10.5694 0.658569 9.99967 0.658569C9.42995 0.658569 8.87495 0.839511 8.4147 1.1753C7.95445 1.51109 7.61274 1.98438 7.43884 2.52691L6.33301 5.97358H2.69217C2.12529 5.97439 1.57317 6.15432 1.11466 6.48767C0.656146 6.82102 0.314706 7.29074 0.139107 7.82974C-0.0364925 8.36873 -0.0372697 8.94944 0.136886 9.48891C0.311042 10.0284 0.651223 10.499 1.10884 10.8336H1.10551Z" fill="#F7BE2C"/>
</g>
<defs>
<clipPath id="clip0_586_2569">
<rect width="20" height="20" fill="white" transform="translate(0 0.5)"/>
</clipPath>
</defs>
</svg>
