<svg width="20" height="21" viewBox="0 0 20 21" fill="none" xmlns="http://www.w3.org/2000/svg">
<g clip-path="url(#clip0_586_2562)">
<path d="M18.9775 6.93444C18.5867 6.48411 18.1038 6.12301 17.5613 5.87557C17.0189 5.62813 16.4296 5.50015 15.8333 5.50027H12.5092L12.7892 3.79944C12.8882 3.20049 12.7687 2.58589 12.4524 2.06772C12.1361 1.54956 11.644 1.16237 11.066 0.976767C10.488 0.791166 9.8625 0.819525 9.30365 1.05667C8.74479 1.29382 8.2898 1.72395 8.02167 2.26861L6.42667 5.50027H4.16667C3.062 5.5016 2.00296 5.94101 1.22185 6.72212C0.440735 7.50324 0.00132321 8.56228 0 9.66694L0 13.8336C0.00132321 14.9383 0.440735 15.9973 1.22185 16.7784C2.00296 17.5595 3.062 17.999 4.16667 18.0003H15.25C16.2529 17.9962 17.221 17.6322 17.9782 16.9746C18.7354 16.3169 19.2313 15.4094 19.3758 14.4169L19.9633 10.2503C20.0461 9.65922 20.0009 9.05729 19.8308 8.48522C19.6607 7.91315 19.3697 7.38429 18.9775 6.93444ZM1.66667 13.8336V9.66694C1.66667 9.0039 1.93006 8.36801 2.3989 7.89917C2.86774 7.43033 3.50363 7.16694 4.16667 7.16694H5.83333V16.3336H4.16667C3.50363 16.3336 2.86774 16.0702 2.3989 15.6014C1.93006 15.1325 1.66667 14.4966 1.66667 13.8336ZM18.3092 10.0161L17.7208 14.1828C17.6348 14.7778 17.3381 15.3221 16.8847 15.7168C16.4312 16.1116 15.8512 16.3304 15.25 16.3336H7.5V6.94527C7.57853 6.87685 7.64355 6.79432 7.69167 6.70194L9.51583 3.00611C9.58424 2.88271 9.68095 2.77732 9.79802 2.69857C9.91509 2.61983 10.0492 2.56999 10.1893 2.55316C10.3293 2.53632 10.4714 2.55296 10.6038 2.60171C10.7362 2.65047 10.8551 2.72994 10.9508 2.83361C11.0327 2.92881 11.0926 3.04091 11.1261 3.16191C11.1597 3.28291 11.1661 3.40983 11.145 3.53361L10.705 6.20027C10.6857 6.31942 10.6925 6.44135 10.7249 6.55761C10.7574 6.67387 10.8147 6.7817 10.8929 6.87363C10.9711 6.96556 11.0684 7.0394 11.178 7.09005C11.2875 7.14069 11.4068 7.16693 11.5275 7.16694H15.8333C16.1912 7.16689 16.5448 7.24366 16.8705 7.39206C17.1961 7.54046 17.486 7.75703 17.7207 8.02714C17.9555 8.29724 18.1294 8.61458 18.231 8.95772C18.3325 9.30085 18.3591 9.66178 18.3092 10.0161Z" fill="#999999"/>
</g>
<defs>
<clipPath id="clip0_586_2562">
<rect width="20" height="20" fill="white" transform="translate(0 0.5)"/>
</clipPath>
</defs>
</svg>
