<svg width="23" height="24" viewBox="0 0 23 24" fill="none" xmlns="http://www.w3.org/2000/svg">
<g id="Web/icon/up">
<path id="chevron.up" d="M9.80591 5.84166L15.4227 11.3358C15.6249 11.5235 15.7187 11.7473 15.7187 12C15.7187 12.2527 15.6177 12.4837 15.4227 12.6714L9.80591 18.1583C9.64708 18.3171 9.44493 18.4037 9.20668 18.4037C8.72297 18.4037 8.34755 18.0283 8.34755 17.5518C8.34755 17.3208 8.43419 17.097 8.60746 16.9309L13.6684 12.0072L8.60746 7.06899C8.44141 6.91016 8.34755 6.68635 8.34755 6.4481C8.34755 5.97161 8.72297 5.59619 9.20668 5.59619C9.43771 5.59619 9.64708 5.68283 9.80591 5.84166Z" fill="white"/>
</g>
</svg>
