<svg width="10" height="10" viewBox="0 0 10 10" fill="none" xmlns="http://www.w3.org/2000/svg">
<g id="fi-rr-angle-right" clip-path="url(#clip0_23_3038)">
<path id="Vector" d="M2.91664 9.99974C2.86181 10.0001 2.80745 9.98955 2.75668 9.96881C2.70591 9.94808 2.65974 9.91752 2.62081 9.87891C2.58175 9.84017 2.55076 9.79409 2.5296 9.74331C2.50845 9.69254 2.49756 9.63808 2.49756 9.58307C2.49756 9.52807 2.50845 9.47361 2.5296 9.42283C2.55076 9.37206 2.58175 9.32598 2.62081 9.28724L6.02497 5.88308C6.25906 5.6487 6.39054 5.331 6.39054 4.99975C6.39054 4.6685 6.25906 4.35079 6.02497 4.11641L2.62081 0.712251C2.54235 0.633791 2.49827 0.527377 2.49827 0.416418C2.49827 0.305459 2.54235 0.199045 2.62081 0.120585C2.69927 0.0421251 2.80568 -0.00195312 2.91664 -0.00195312C3.0276 -0.00195313 3.13401 0.0421251 3.21247 0.120585L6.61664 3.52475C6.81065 3.71827 6.96458 3.94817 7.06961 4.20127C7.17464 4.45438 7.2287 4.72572 7.2287 4.99975C7.2287 5.27378 7.17464 5.54511 7.06961 5.79822C6.96458 6.05132 6.81065 6.28122 6.61664 6.47474L3.21247 9.87891C3.17354 9.91752 3.12737 9.94808 3.0766 9.96881C3.02584 9.98955 2.97148 10.0001 2.91664 9.99974Z" fill="#374957"/>
</g>
<defs>
<clipPath id="clip0_23_3038">
<rect width="10" height="10" fill="white"/>
</clipPath>
</defs>
</svg>
